PERFORMER "Mark Hancock"
TITLE "English Pronunciation In Use - CD4"
FILE "Mark.Hancock_2003_English.Pronunciation.In.Use_CD4.mp3" MP3
  TRACK 01 AUDIO
    TITLE "D1"
    INDEX 01 00:00:00
  TRACK 02 AUDIO
    TITLE "D2"
    INDEX 01 01:54:64
  TRACK 03 AUDIO
    TITLE "D3"
    INDEX 01 03:10:43
  TRACK 04 AUDIO
    TITLE "D4"
    INDEX 01 04:30:55
  TRACK 05 AUDIO
    TITLE "D5"
    INDEX 01 05:19:41
  TRACK 06 AUDIO
    TITLE "D6"
    INDEX 01 06:10:48
  TRACK 07 AUDIO
    TITLE "D7"
    INDEX 01 07:19:13
  TRACK 08 AUDIO
    TITLE "D8"
    INDEX 01 08:32:10
  TRACK 09 AUDIO
    TITLE "D9"
    INDEX 01 09:47:29
  TRACK 10 AUDIO
    TITLE "D10"
    INDEX 01 11:04:66
  TRACK 11 AUDIO
    TITLE "D11"
    INDEX 01 12:19:46
  TRACK 12 AUDIO
    TITLE "D12"
    INDEX 01 13:34:14
  TRACK 13 AUDIO
    TITLE "D13"
    INDEX 01 14:49:27
  TRACK 14 AUDIO
    TITLE "D14"
    INDEX 01 16:05:40
  TRACK 15 AUDIO
    TITLE "D15"
    INDEX 01 17:21:00
  TRACK 16 AUDIO
    TITLE "D16"
    INDEX 01 18:30:73
  TRACK 17 AUDIO
    TITLE "D17"
    INDEX 01 19:46:13
  TRACK 18 AUDIO
    TITLE "D18"
    INDEX 01 20:56:70
  TRACK 19 AUDIO
    TITLE "D19"
    INDEX 01 22:10:58
  TRACK 20 AUDIO
    TITLE "D20"
    INDEX 01 23:22:08
  TRACK 21 AUDIO
    TITLE "D21"
    INDEX 01 24:37:33
  TRACK 22 AUDIO
    TITLE "D22"
    INDEX 01 25:51:27
  TRACK 23 AUDIO
    TITLE "D23"
    INDEX 01 27:06:07
  TRACK 24 AUDIO
    TITLE "D24"
    INDEX 01 28:24:38
  TRACK 25 AUDIO
    TITLE "D25"
    INDEX 01 29:39:24
  TRACK 26 AUDIO
    TITLE "D26"
    INDEX 01 30:49:73
  TRACK 27 AUDIO
    TITLE "D27"
    INDEX 01 31:30:26
  TRACK 28 AUDIO
    TITLE "D28"
    INDEX 01 32:46:68
  TRACK 29 AUDIO
    TITLE "D29"
    INDEX 01 34:04:17
  TRACK 30 AUDIO
    TITLE "D30"
    INDEX 01 35:23:24
  TRACK 31 AUDIO
    TITLE "D31"
    INDEX 01 36:40:01
  TRACK 32 AUDIO
    TITLE "D32"
    INDEX 01 37:56:04
  TRACK 33 AUDIO
    TITLE "D33"
    INDEX 01 39:12:62
  TRACK 34 AUDIO
    TITLE "D34"
    INDEX 01 40:31:00
  TRACK 35 AUDIO
    TITLE "D35"
    INDEX 01 41:51:28
  TRACK 36 AUDIO
    TITLE "D36"
    INDEX 01 43:08:07
  TRACK 37 AUDIO
    TITLE "D37"
    INDEX 01 44:26:52
  TRACK 38 AUDIO
    TITLE "D38"
    INDEX 01 45:48:71
  TRACK 39 AUDIO
    TITLE "D39"
    INDEX 01 47:05:50
  TRACK 40 AUDIO
    TITLE "D40"
    INDEX 01 48:29:70
  TRACK 41 AUDIO
    TITLE "D41"
    INDEX 01 49:47:72
  TRACK 42 AUDIO
    TITLE "D42"
    INDEX 01 51:07:47
  TRACK 43 AUDIO
    TITLE "D43"
    INDEX 01 52:27:71
  TRACK 44 AUDIO
    TITLE "D44"
    INDEX 01 53:51:38
  TRACK 45 AUDIO
    TITLE "D45"
    INDEX 01 55:09:51
  TRACK 46 AUDIO
    TITLE "D46"
    INDEX 01 56:31:07
  TRACK 47 AUDIO
    TITLE "D47"
    INDEX 01 57:49:62
  TRACK 48 AUDIO
    TITLE "D48"
    INDEX 01 59:09:14
  TRACK 49 AUDIO
    TITLE "D49"
    INDEX 01 60:28:46
  TRACK 50 AUDIO
    TITLE "D50"
    INDEX 01 61:48:70
  TRACK 51 AUDIO
    TITLE "D51"
    INDEX 01 63:07:01
  TRACK 52 AUDIO
    TITLE "D52"
    INDEX 01 64:32:32
  TRACK 53 AUDIO
    TITLE "D53"
    INDEX 01 65:51:29
  TRACK 54 AUDIO
    TITLE "D54"
    INDEX 01 67:13:23
  TRACK 55 AUDIO
    TITLE "D55"
    INDEX 01 68:31:58
  TRACK 56 AUDIO
    TITLE "D56"
    INDEX 01 69:53:54
  TRACK 57 AUDIO
    TITLE "D57"
    INDEX 01 71:14:50
  TRACK 58 AUDIO
    TITLE "D58"
    INDEX 01 71:35:56
  TRACK 59 AUDIO
    TITLE "D59"
    INDEX 01 71:57:02
  TRACK 60 AUDIO
    TITLE "D60"
    INDEX 01 72:15:47
  TRACK 61 AUDIO
    TITLE "D61"
    INDEX 01 72:29:72
  TRACK 62 AUDIO
    TITLE "D62"
    INDEX 01 72:45:33
  TRACK 63 AUDIO
    TITLE "D63"
    INDEX 01 72:59:44
  TRACK 64 AUDIO
    TITLE "D64"
    INDEX 01 73:23:11
  TRACK 65 AUDIO
    TITLE "D65"
    INDEX 01 73:38:63
